<?xml version="1.0" encoding="UTF-8" standalone="no"?>
<svg width="34px" height="48px" viewBox="0 0 34 48" version="1.1" xmlns="http://www.w3.org/2000/svg" xmlns:xlink="http://www.w3.org/1999/xlink" xmlns:sketch="http://www.bohemiancoding.com/sketch/ns">
    <!-- Generator: Sketch 3.0.4 (8054) - http://www.bohemiancoding.com/sketch -->
    <title>Fill 1</title>
    <desc>Created with Sketch.</desc>
    <defs></defs>
    <g id="Page-1" stroke="none" stroke-width="1" fill="none" fill-rule="evenodd" sketch:type="MSPage">
        <g id="jerry_can" sketch:type="MSLayerGroup" fill="#000000">
            <path d="M25.394,30.904 C25.394,30.904 28.382,36.123 29.008,37.318 C29.835,38.903 28.706,39.582 28.706,39.582 C28.706,39.582 27.2,40.338 26.447,38.979 C25.809,37.824 23.726,34.15 22.985,33.018 C22.031,31.559 21.63,31.055 20.351,31.055 L17.314,31.055 L17.111,31.055 L14.053,31.055 C12.763,31.055 12.357,31.559 11.396,33.018 C10.649,34.15 8.551,37.824 7.906,38.979 C7.146,40.338 5.63,39.582 5.63,39.582 C5.63,39.582 4.492,38.903 5.327,37.318 C5.957,36.123 8.969,30.904 8.969,30.904 C8.969,30.904 9.727,29.748 9.727,28.793 L9.727,26.124 L9.727,25.621 L9.727,22.963 C9.727,22.008 8.969,20.854 8.969,20.854 C8.969,20.854 5.957,15.649 5.327,14.457 C4.492,12.875 5.63,12.198 5.63,12.198 C5.63,12.198 7.146,11.445 7.906,12.8 C8.551,13.951 10.649,17.617 11.396,18.747 C12.357,20.203 12.763,20.703 14.053,20.703 L17.111,20.703 L17.314,20.703 L20.351,20.703 C21.63,20.703 22.031,20.203 22.985,18.747 C23.726,17.617 25.809,13.951 26.447,12.8 C27.2,11.445 28.706,12.198 28.706,12.198 C28.706,12.198 29.835,12.875 29.008,14.457 C28.382,15.649 25.394,20.854 25.394,20.854 C25.394,20.854 24.641,22.008 24.641,22.963 L24.641,25.621 L24.641,26.124 L24.641,28.793 C24.641,29.748 25.394,30.904 25.394,30.904 L25.394,30.904 Z M14.077,3.34 L23.008,3.34 C23.771,3.34 24.391,3.958 24.391,4.721 C24.391,5.483 23.771,6.1 23.008,6.1 L14.077,6.1 C13.315,6.1 12.696,5.483 12.696,4.721 C12.696,3.958 13.315,3.34 14.077,3.34 L14.077,3.34 Z M33.322,6.252 C33.097,5.799 31.642,2.914 31.642,2.914 C31.642,2.914 32.195,2.587 32.446,2.463 C32.697,2.337 32.886,2.179 32.544,1.534 C32.178,0.839 31.816,1.041 31.816,1.041 C31.816,1.041 31.33,1.311 30.789,1.585 C29.886,0.253 28.63,0.125 28.254,0.129 C28.004,0.13 26.773,0.129 26.398,0.129 C26.021,0.129 25.67,0.178 25.518,0.38 C25.369,0.58 25.018,0.756 24.591,0.756 L11.869,0.756 C11.744,0.768 11.719,0.68 11.642,0.631 C10.789,0.154 9.85,0.619 9.647,0.845 C9.447,1.07 8.644,2.049 8.169,2.587 C7.69,3.127 7.276,3.229 6.951,3.329 C7.151,3.064 7.001,2.813 7.001,2.813 L6.812,2.438 L7.076,1.723 L7.314,1.597 L7.176,1.27 C7.176,1.27 7.025,1.334 6.748,1.471 C6.475,1.609 6.475,1.735 6.475,1.735 C6.35,2.186 6.022,2.211 6.022,2.211 C6.022,2.211 5.294,0.832 5.194,0.656 C5.093,0.479 4.894,-0.072 2.459,1.232 C0.024,2.538 0.602,3.04 0.602,3.04 L1.431,4.644 L1.179,4.846 L1.783,6.05 C1.783,6.05 1.631,6.125 1.103,6.477 C0.577,6.828 0,7.18 0,8.132 L0,43.162 C0,45.797 0.754,47 3.688,47 L30.488,47 C32.219,47 33.876,46.097 33.876,43.088 L33.876,8.458 C33.876,6.729 33.547,6.703 33.322,6.252 L33.322,6.252 Z M21.026,23.111 L13.501,23.111 C12.835,23.111 12.295,23.651 12.295,24.316 L12.295,27.58 C12.295,28.245 12.835,28.785 13.501,28.785 L21.026,28.785 C21.692,28.785 22.231,28.245 22.231,27.58 L22.231,24.316 C22.231,23.651 21.692,23.111 21.026,23.111 L21.026,23.111 Z" id="Fill-1" sketch:type="MSShapeGroup"></path>
        </g>
    </g>
</svg>